<svg width="169" height="69" viewBox="0 0 169 69" fill="none" xmlns="http://www.w3.org/2000/svg">
<g clip-path="url(#clip0_22_908)">
<path d="M30.276 44.1411C29.4199 47.0776 27.7661 50.2723 25.3096 53.7302C22.8556 57.1857 20.1298 59.9956 17.1373 62.1575C14.1447 64.3193 9.8439 66.0154 4.23732 67.2482C2.05261 67.6583 0.657955 66.6483 0.0558895 64.2181C-0.261655 61.7246 0.751948 60.2715 3.0967 59.8614C7.1816 59.1678 10.4764 57.8894 12.9787 56.0263C15.481 54.1631 17.658 51.9937 19.5125 49.5154C21.3644 47.0371 22.7362 44.4246 23.6228 41.6805C24.4154 39.7566 25.9345 39.0604 28.1853 39.5971C30.3065 40.5768 31.0051 42.0906 30.276 44.1436V44.1411ZM0.010163 34.5772V34.5291C0.010163 32.066 1.24478 30.8357 3.71655 30.8357H10.9871C13.4588 30.8357 14.6934 32.066 14.6934 34.5291C14.6934 36.9922 13.4588 38.2706 10.9871 38.2706H3.71401C1.24478 38.2706 0.010163 37.0403 0.010163 34.5772ZM0.010163 46.0827V46.0346C0.010163 43.5715 1.24478 42.3412 3.71655 42.3412H10.9871C13.4588 42.3412 14.6934 43.5715 14.6934 46.0346C14.6934 48.4977 13.4588 49.7761 10.9871 49.7761H3.71401C1.24478 49.7761 0.010163 48.5458 0.010163 46.0827Z" fill="#F87171"/>
<path d="M34.7877 40.8755V40.8274C34.7877 38.744 35.8318 37.7036 37.9225 37.7036H56.6424C58.7331 37.7036 59.7772 38.744 59.7772 40.8274C59.7772 42.9108 58.7331 43.9993 56.6424 43.9993H50.7031V60.8563H57.4502C59.5714 60.8563 60.6333 61.8967 60.6333 63.9801C60.6333 66.0635 59.5714 67.1521 57.4502 67.1521H37.2087C35.0849 67.1521 34.0256 66.1116 34.0256 64.0282C34.0256 61.9448 35.0875 60.8563 37.2087 60.8563H44.0981V43.9993H37.9225C35.8318 43.9993 34.7877 42.9589 34.7877 40.8755Z" fill="#F87171"/>
<path d="M66.6235 60.9981C67.7641 60.6183 68.9276 59.9652 70.1165 59.0336C71.3054 58.1021 72.3647 56.6667 73.2996 54.7251C74.2344 52.7835 74.7171 50.1406 74.7476 46.794V45.989C74.7476 43.6221 75.9365 42.4374 78.3117 42.4374C80.6869 42.4374 81.9215 43.6221 81.9215 45.989V47.0776C81.858 50.9279 81.2255 54.1884 80.0214 56.8541C78.8172 59.5222 77.4149 61.6841 75.8171 63.3397C74.2166 64.9978 72.2301 66.4255 69.8548 67.6254C67.4466 68.5393 65.8639 67.9089 65.1044 65.7319C64.4388 63.3346 64.9469 61.755 66.626 60.9981H66.6235ZM65.2923 34.2456V34.1975C65.2923 31.8002 66.4965 30.6003 68.9022 30.6003H90.3784C93.0712 30.6332 94.9714 31.6103 96.079 33.5368C97.1866 35.4632 97.3771 37.7972 96.648 40.5439C95.8554 43.1006 94.7072 45.4372 93.2033 47.5509C91.6994 49.6672 90.1853 51.2443 88.6662 52.2848C86.4154 53.7682 84.7058 53.5783 83.5347 51.7177C82.4906 49.571 82.7421 47.9307 84.2942 46.794C85.4349 46.0675 86.4866 45.0347 87.4544 43.693C88.4198 42.3513 88.9507 41.2248 89.0472 40.3084C89.2683 38.6048 88.5874 37.7846 87.0048 37.8453H68.9022C66.4939 37.8453 65.2923 36.6454 65.2923 34.2481V34.2456Z" fill="#F87171"/>
<path d="M103.969 37.939C104.919 37.7491 105.839 37.5922 106.726 37.4656C106.756 35.6025 106.774 34.357 106.774 33.7241C106.774 31.1673 108.008 29.9041 110.48 29.9371C113.046 29.8738 114.235 31.137 114.044 33.7241C114.075 34.3241 114.044 35.4607 113.95 37.134H117.56C119.935 37.134 121.765 37.9086 123.047 39.4528C124.33 40.9995 125.097 43.4297 125.352 46.7434C125.573 49.1432 125.661 51.6038 125.613 54.1302C125.565 56.6566 125.303 59.0007 124.828 61.1601C124.353 63.3219 123.553 65.0661 122.428 66.3926C121.302 67.7191 119.758 68.4127 117.794 68.476C116.747 68.4431 115.767 68.3494 114.847 68.1925C112.662 67.7191 111.773 66.3293 112.187 64.0257C112.599 61.9423 113.613 60.9322 115.228 60.9955C115.673 61.0588 116.148 61.074 116.653 61.0436C117.476 60.95 118.038 60.1677 118.34 58.6995C118.64 57.2313 118.792 55.4567 118.792 53.3733C118.792 51.2899 118.729 49.2394 118.602 47.2168C118.602 46.0169 118.381 45.2524 117.936 44.9208C117.492 44.5891 116.702 44.3917 115.561 44.3284C115.18 44.3284 114.855 44.3436 114.588 44.3765C114.319 44.4094 113.963 44.4246 113.519 44.4246C113.107 48.7812 112.408 52.9151 111.428 56.8288C110.445 60.7424 109.558 63.7725 108.768 65.9192C108.072 67.7495 106.55 68.3823 104.206 67.8128C102.145 66.9926 101.449 65.6661 102.115 63.8358C102.62 62.9194 103.349 60.6639 104.3 57.0642C105.25 53.467 105.946 49.409 106.39 44.8955C105.377 45.022 104.663 45.1334 104.251 45.2271C102.288 45.5435 101.259 44.3588 101.162 41.6754C101.289 39.3718 102.224 38.1238 103.967 37.9339L103.969 37.939ZM123.972 29.084V25.4867C123.972 24.4134 124.511 23.8767 125.588 23.8767C126.665 23.8767 127.252 24.4134 127.252 25.4867V29.084C127.252 30.1573 126.713 30.694 125.636 30.694C124.559 30.694 123.972 30.1573 123.972 29.084ZM124.97 36.5644C124.368 35.0481 125.001 33.914 126.871 33.1545C128.834 32.7141 130.229 33.2811 131.052 34.8582C132.604 38.7086 133.791 42.8753 134.616 47.3586C135.028 49.2521 134.141 50.452 131.956 50.9558C129.802 51.3355 128.535 50.5128 128.156 48.4927C127.236 43.7259 126.177 39.749 124.973 36.5619L124.97 36.5644ZM129.104 29.084V25.4867C129.104 24.4134 129.642 23.8767 130.719 23.8767C131.796 23.8767 132.383 24.4134 132.383 25.4867V29.084C132.383 30.1573 131.845 30.694 130.768 30.694C129.69 30.694 129.104 30.1573 129.104 29.084Z" fill="#F87171"/>
<path d="M147.397 32.9672V55.8364C147.397 57.6996 147.707 59.0716 148.324 59.9551C148.941 60.8386 149.899 61.3271 151.2 61.4233C152.879 61.4233 154.644 61.0208 156.496 60.2158C158.348 59.4108 160.749 58.0945 163.696 56.2617C165.405 55.0314 166.927 55.2187 168.258 56.8287C169.462 58.7223 169.208 60.4918 167.499 62.1321C166.04 63.2688 164.488 64.3193 162.842 65.2813C161.193 66.2432 159.342 67.0888 157.284 67.8153C155.224 68.5418 153.054 68.9342 150.775 69C147.069 68.9367 144.392 67.8558 142.745 65.7572C141.099 63.6586 140.274 60.7474 140.274 57.0211V32.9697C140.274 30.6028 141.463 29.4181 143.838 29.4181C146.213 29.4181 147.402 30.6028 147.402 32.9697L147.397 32.9672Z" fill="#F87171"/>
<path d="M20.5159 1.45559C20.5083 1.41762 20.5032 1.3594 20.5032 1.28345C20.5032 1.05562 20.5693 0.863232 20.7014 0.706281C20.8335 0.549331 20.9986 0.470856 21.1968 0.470856C21.3619 0.470856 21.5092 0.534142 21.6362 0.655652C21.7633 0.779694 21.8446 0.931581 21.8776 1.11132L24.3417 13.918C24.3493 13.9559 24.3544 14.0142 24.3544 14.0901C24.3544 14.3078 24.2884 14.4977 24.1563 14.6521C24.0242 14.809 23.8591 14.8875 23.6609 14.8875C23.4958 14.8875 23.3484 14.8268 23.2214 14.7103C23.0944 14.5913 23.0131 14.442 22.9801 14.2622L20.5159 1.45559Z" fill="#F87171"/>
<path d="M28.8966 3.23773C28.8966 2.47829 29.2268 2.09604 29.8873 2.09604H31.8688C33.0247 2.10616 33.5683 2.83776 33.5023 4.29335C33.454 4.86292 33.3854 5.53376 33.3041 6.30333C33.6598 6.43749 34.018 6.59951 34.3812 6.78937C34.4219 6.3818 34.4625 5.82994 34.5057 5.13632C34.5387 4.50852 34.808 4.19462 35.311 4.19462C35.88 4.21487 36.1569 4.52624 36.1392 5.13632C36.0807 6.1641 36.0198 6.99441 35.9537 7.63234L36.4491 7.96143C37.0511 8.28546 37.2341 8.85504 36.9927 9.6727C36.7133 10.2524 36.3322 10.3866 35.8546 10.0727L35.6438 9.94356C35.5371 10.5714 35.2932 11.546 34.9122 12.8674C34.648 13.4851 34.2517 13.6749 33.7233 13.437C33.1796 13.1332 33.0298 12.6775 33.2787 12.0675C33.675 10.9561 33.9341 9.93344 34.0586 9.00186C33.8681 8.89807 33.6826 8.79935 33.5023 8.71074C33.3219 8.61961 33.1441 8.5386 32.9688 8.46013L32.9561 8.48798C32.824 9.11578 32.6258 9.7613 32.3616 10.4271C32.0974 11.0928 31.7824 11.6523 31.4141 12.1105C31.0457 12.5662 30.6367 12.8142 30.182 12.8522C29.5393 12.8421 29.0566 12.5054 28.7391 11.8396C28.4215 11.1739 28.3149 10.2853 28.4241 9.174C28.5054 8.5462 28.7188 7.99687 29.0617 7.52602C29.4047 7.05517 29.801 6.68558 30.2506 6.41471C30.7003 6.14384 31.1804 5.99449 31.6935 5.96664C31.7266 5.66287 31.7545 5.36669 31.7799 5.08316C31.8129 4.6275 31.6732 4.3946 31.3582 4.38448H29.8848C29.2243 4.38448 28.8941 4.00476 28.8941 3.24279L28.8966 3.23773ZM30.2455 10.5536C30.4259 10.5435 30.5859 10.4169 30.7231 10.1689C30.8603 9.92078 30.9721 9.63726 31.0635 9.31323C31.155 8.9892 31.2236 8.70315 31.2744 8.45C31.3252 8.19686 31.348 8.06775 31.348 8.05763C31.0762 8.05763 30.8374 8.13863 30.6291 8.30065C30.4208 8.46266 30.2684 8.65252 30.1642 8.87023C30.0601 9.08793 29.989 9.28285 29.9483 9.45499C29.8899 9.82459 29.9051 10.1005 29.9915 10.2828C30.0779 10.4625 30.1617 10.5536 30.2455 10.5536Z" fill="#F87171"/>
<path d="M40.534 2.70865C40.6991 1.96693 41.1284 1.66316 41.8219 1.79479C42.424 2.02262 42.6222 2.47829 42.4164 3.16431C42.0785 4.36169 41.794 5.40212 41.5628 6.28813C41.6035 6.20206 41.8092 6.07043 42.1827 5.88816C42.5536 5.70843 42.9346 5.71349 43.3284 5.90335C43.7196 6.09321 43.9584 6.45774 44.0473 6.99441C44.1337 7.53108 44.1642 8.08547 44.1413 8.65505C44.1159 9.19678 44.1235 9.67523 44.1667 10.0879C44.2073 10.5005 44.3242 10.7233 44.5122 10.7511C44.7434 10.7511 45.0685 10.5233 45.4902 10.0676C45.8205 9.67776 46.199 9.67776 46.6283 10.0676C46.9738 10.5916 46.9865 11.103 46.6664 11.6067C46.4352 11.9763 46.2091 12.2826 45.9907 12.5181C45.7722 12.756 45.5131 12.9636 45.2159 13.1383C44.9186 13.3129 44.5935 13.4015 44.2378 13.4015C43.5037 13.3534 43.0007 13.0016 42.7339 12.3459C42.4647 11.6903 42.3529 10.8245 42.3935 9.75117C42.4266 9.20944 42.4189 8.77909 42.3757 8.46012C42.33 8.14116 42.142 8.02978 41.8118 8.12597C41.6136 8.19179 41.4307 8.33862 41.2605 8.56898C41.0903 8.79681 40.9608 9.05755 40.8693 9.35373C40.7779 9.64738 40.6966 9.93344 40.6229 10.2094C40.5162 10.703 40.3384 11.5131 40.0894 12.6345C39.9573 13.3104 39.5458 13.5762 38.8523 13.4319C38.3493 13.2142 38.1511 12.7763 38.2578 12.1206C38.3721 11.5308 38.555 10.6853 38.8015 9.58156C39.0479 8.47785 39.3375 7.25515 39.6677 5.91095C39.998 4.56674 40.2876 3.49846 40.534 2.70865Z" fill="#F87171"/>
<path d="M47.9493 4.14907C47.9493 3.4352 48.2592 3.08079 48.8765 3.08079H49.5091L49.6463 2.22516C49.7377 1.7214 50.0578 1.46572 50.6116 1.4556C51.1883 1.49357 51.4296 1.78722 51.3305 2.33908C51.2822 2.56691 51.2441 2.81499 51.2187 3.08079H51.8614C52.4813 3.08079 52.7887 3.43773 52.7887 4.14907C52.7887 4.86041 52.4788 5.23253 51.8614 5.23253H50.9215C50.3347 8.07536 49.9841 9.78157 49.8698 10.3511C49.7453 10.9131 49.3998 11.141 48.8308 11.0346C48.2694 10.8929 48.056 10.5132 48.1881 9.89295C48.7089 7.70577 49.0391 6.15145 49.1788 5.23H48.8816C48.2618 5.23 47.9544 4.868 47.9544 4.14654L47.9493 4.14907ZM54.1147 5.67554C54.6508 5.67554 54.92 5.98438 54.92 6.60205V7.99942C55.2909 8.15131 55.7533 8.40445 56.3071 8.75633C56.6627 9.0601 56.711 9.49804 56.4544 10.0676C56.1648 10.5334 55.8193 10.6296 55.4154 10.3537C55.2986 10.2879 55.136 10.2069 54.92 10.1107V11.0372C54.92 11.7586 54.8159 12.3029 54.605 12.67C54.3942 13.037 54.1402 13.2826 53.8429 13.4117C53.5457 13.5408 53.2434 13.6041 52.9386 13.6041C52.5423 13.6243 52.1536 13.5509 51.77 13.3914C51.3864 13.2294 51.0612 12.9408 50.792 12.5206C50.5227 12.1029 50.3906 11.5131 50.3906 10.7536C50.3982 9.77397 50.6599 9.00694 51.1756 8.45002C51.6912 7.8931 52.4025 7.65008 53.312 7.7159V6.60459C53.312 5.98691 53.5813 5.67807 54.1173 5.67807L54.1147 5.67554ZM52.9386 11.5941C53.063 11.584 53.1545 11.5131 53.218 11.3814C53.279 11.2473 53.312 11.0726 53.312 10.8549V9.64234C52.8674 9.56639 52.527 9.62715 52.2959 9.82713C52.0647 10.0271 51.9377 10.303 51.9123 10.6549C51.9046 11.0068 51.9935 11.2574 52.179 11.4118C52.3644 11.5637 52.6185 11.6245 52.9411 11.5966L52.9386 11.5941ZM53.4085 3.63772C53.5737 2.98207 53.9522 2.74411 54.5466 2.92384L55.6618 3.26559C56.2563 3.45545 56.4697 3.87314 56.3045 4.52119C56.1318 5.17684 55.7482 5.4148 55.1538 5.23507L54.0512 4.89332C53.4492 4.71359 53.2332 4.29336 53.4085 3.63772Z" fill="#F87171"/>
<path d="M58.8906 2.22516H64.9799C65.5006 2.24541 65.8055 2.53906 65.8969 3.10864C65.963 3.76428 65.8055 4.17691 65.427 4.34905C64.9722 4.52119 64.4642 4.79712 63.8977 5.18443C63.3312 5.56922 62.8485 6.02488 62.4497 6.55395C62.0483 7.0805 61.7917 7.58679 61.6749 8.07283C61.5275 8.71835 61.5377 9.23477 61.713 9.61955C61.8857 10.0043 62.127 10.2853 62.437 10.46C62.7469 10.6372 63.034 10.7334 63.2982 10.7536C63.6284 10.7739 64.0577 10.7688 64.5861 10.7385C65.1806 10.7106 65.4854 11.0751 65.5032 11.8371C65.4854 12.6345 65.1806 13.0294 64.5861 13.0193C63.9993 13.0193 63.5217 13.0041 63.1508 12.9763C62.8053 12.956 62.3989 12.8649 61.9365 12.6978C61.4742 12.5307 61.055 12.2725 60.679 11.9206C60.3031 11.5688 60.0135 11.0979 59.8128 10.5081C59.6095 9.91826 59.5537 9.19173 59.6451 8.32597C59.7366 7.71842 59.8941 7.17163 60.1227 6.68559C60.3488 6.19955 60.5977 5.78945 60.8645 5.45277C61.1312 5.11608 61.3624 4.85534 61.5504 4.67561C61.7409 4.49588 61.8425 4.40474 61.8603 4.40474H58.8906C58.2632 4.40474 57.9507 4.04275 57.9507 3.32128C57.9507 2.59981 58.2632 2.22263 58.8906 2.22263V2.22516ZM63.8672 6.9033V5.81983C63.8672 5.4958 64.0069 5.33379 64.2889 5.33379C64.5709 5.33379 64.7233 5.4958 64.7233 5.81983V6.9033C64.7233 7.22732 64.5836 7.38933 64.3016 7.38933C64.0196 7.38933 63.8672 7.22732 63.8672 6.9033ZM65.2034 6.9033V5.81983C65.2034 5.4958 65.3431 5.33379 65.6251 5.33379C65.9071 5.33379 66.0595 5.4958 66.0595 5.81983V6.9033C66.0595 7.22732 65.9198 7.38933 65.6378 7.38933C65.3558 7.38933 65.2034 7.22732 65.2034 6.9033Z" fill="#F87171"/>
<path d="M67.7666 3.23772V3.22254C67.7666 2.4631 68.0969 2.08085 68.7574 2.08085H72.855C73.4901 2.053 73.9423 2.33146 74.2115 2.9137C74.4808 3.49847 74.4478 4.17183 74.1175 4.93127C73.739 6.01474 73.3326 6.93619 72.9033 7.69816C73.2742 8.26014 73.6628 8.82719 74.0667 9.40183C74.4707 9.97647 74.867 10.503 75.2556 10.9789C75.6341 11.5865 75.624 12.1383 75.2175 12.632C74.7399 12.956 74.3259 12.8876 73.9804 12.432C73.7085 12.1662 73.3732 11.7485 72.9769 11.1764C72.5806 10.6068 72.1894 10.022 71.8007 9.42208C71.2978 10.136 70.7846 10.7562 70.2587 11.2827C69.7354 11.8092 69.2045 12.2598 68.6685 12.6294C68.1248 12.999 67.6777 12.9054 67.3322 12.3434C67.0858 11.5915 67.2001 11.0422 67.6777 10.6903C68.1477 10.4347 68.671 10.0018 69.2426 9.3917C69.8167 8.78415 70.3553 8.09306 70.8583 7.3235C71.3613 6.55394 71.7703 5.74134 72.0827 4.8857C72.1742 4.54396 72.0776 4.37182 71.7982 4.37182H68.7523C68.0918 4.37182 67.7616 3.9921 67.7616 3.23013L67.7666 3.23772Z" fill="#F87171"/>
<path d="M84.1062 3.22255C83.809 3.75416 83.5194 4.22501 83.2324 4.63511C82.9478 5.0452 82.5998 5.51859 82.1857 6.06032V12.4345C82.1857 13.1864 81.8606 13.561 81.2077 13.561C80.5548 13.561 80.2297 13.1864 80.2297 12.4345V7.79943C79.5946 8.38926 78.741 8.99175 77.6664 9.60942C77.1711 9.8651 76.7925 9.73347 76.5283 9.20945C76.3226 8.41964 76.4699 7.88803 76.9729 7.6121C77.4683 7.38427 78.0348 7.04506 78.675 6.59192C79.3151 6.14132 79.9807 5.52112 80.6742 4.7389C81.3677 3.95414 81.9495 3.08585 82.4194 2.13656C82.6836 1.66064 83.113 1.54673 83.7074 1.79481C84.2688 2.19478 84.4009 2.67069 84.1037 3.22002L84.1062 3.22255Z" fill="#F87171"/>
<path d="M85.7778 7.38678V7.3716C85.7778 6.62988 86.1004 6.26028 86.7431 6.26028H90.5308C91.1735 6.26028 91.4962 6.62988 91.4962 7.3716C91.4962 8.11331 91.1735 8.49809 90.5308 8.49809H86.7431C86.1004 8.49809 85.7778 8.1285 85.7778 7.38678Z" fill="#F87171"/>
<path d="M94.3439 2.49601L94.9129 6.5185C94.979 7.10833 94.7681 7.4602 94.2804 7.57412C93.7926 7.67031 93.5183 7.41717 93.4522 6.81721L92.8705 2.83776C92.8121 2.2378 93.0356 1.90618 93.5386 1.84036C94.0263 1.79226 94.2931 2.0125 94.3439 2.49601ZM94.7148 12.9206C94.0289 13.1003 93.6173 12.8345 93.4776 12.1206C93.3862 11.3232 93.6174 10.865 94.1712 10.7511C94.9637 10.5511 95.6598 10.1486 96.2644 9.53853C96.8665 8.93098 97.3441 8.19686 97.6946 7.33616C98.0452 6.47546 98.3119 5.63755 98.4923 4.81989C98.6727 4.00223 98.7844 3.37443 98.8276 2.93648C98.9013 2.22261 99.2493 1.86315 99.8666 1.85302C100.527 1.88087 100.807 2.30109 100.707 3.10862C100.509 4.78192 100.245 6.10334 99.9149 7.07289C99.5847 8.04244 99.1426 8.95376 98.5914 9.80433C98.0376 10.6549 97.4126 11.346 96.7166 11.8801C96.018 12.4117 95.3524 12.7585 94.7173 12.9206H94.7148ZM96.7699 2.49601L97.339 6.5185C97.405 7.10833 97.1942 7.4602 96.7064 7.57412C96.2187 7.67031 95.9443 7.41717 95.8783 6.81721L95.2965 2.83776C95.2381 2.2378 95.4617 1.90618 95.9646 1.84036C96.4524 1.79226 96.7191 2.0125 96.7699 2.49601Z" fill="#F87171"/>
<path d="M104.879 6.17423C105.026 6.17423 105.156 6.22233 105.262 6.31599C105.435 6.45016 105.542 6.64002 105.585 6.88557V6.90076L105.598 7.0729C105.598 7.27288 105.544 7.46274 105.438 7.64248C105.313 7.86271 105.14 8.00954 104.917 8.08548L104.731 8.15636C104.648 8.16649 104.607 8.21965 104.607 8.31331V11.4068C104.607 11.8548 104.566 12.2194 104.482 12.5054C104.391 12.7813 104.251 12.994 104.061 13.1484C103.83 13.3281 103.517 13.4471 103.121 13.5053L103.022 13.5205C102.824 13.5205 102.641 13.4395 102.478 13.2775C102.28 13.0978 102.153 12.8598 102.095 12.5636C102.077 12.4674 102.069 12.4016 102.069 12.3636C102.069 12.2877 102.082 12.2118 102.107 12.1358C102.14 11.9941 102.211 11.8751 102.318 11.7789C102.425 11.6928 102.544 11.6447 102.676 11.6371H102.763C102.836 11.6371 102.89 11.6169 102.923 11.5789C102.948 11.5511 102.961 11.4928 102.961 11.4068V8.82467C102.961 8.7867 102.948 8.76391 102.923 8.75379C102.915 8.73354 102.895 8.72594 102.862 8.72594L102.801 8.75379C102.702 8.77404 102.631 8.78163 102.59 8.78163C102.45 8.78163 102.305 8.73353 102.156 8.63987C101.95 8.49811 101.82 8.29306 101.772 8.02726C101.754 7.91334 101.747 7.83234 101.747 7.78424C101.747 7.6045 101.797 7.4273 101.894 7.25769C102.018 7.03999 102.204 6.89063 102.45 6.81469C102.549 6.79444 102.676 6.76153 102.834 6.71596C102.915 6.70584 102.958 6.65014 102.958 6.54382V4.63257C102.958 4.53637 102.918 4.49081 102.834 4.49081H102.623C102.399 4.49081 102.206 4.39461 102.041 4.20475C101.876 4.01489 101.795 3.79719 101.795 3.54911C101.795 3.30102 101.876 3.06813 102.041 2.87827C102.206 2.68841 102.399 2.59221 102.623 2.59221H102.834C102.915 2.59221 102.958 2.54412 102.958 2.45045V0.954359C102.958 0.67843 103.037 0.455661 103.195 0.283522C103.36 0.0936625 103.553 -0.00253296 103.776 -0.00253296C104 -0.00253296 104.193 0.0936625 104.358 0.283522C104.523 0.455661 104.604 0.67843 104.604 0.954359V2.46564C104.604 2.55171 104.643 2.59474 104.716 2.59474H104.764C104.988 2.59474 105.181 2.69094 105.346 2.8808C105.511 3.07066 105.593 3.29343 105.593 3.55164C105.593 3.80985 105.511 4.01743 105.346 4.20729C105.181 4.39714 104.988 4.49334 104.764 4.49334H104.716C104.643 4.49334 104.604 4.53637 104.604 4.62244V6.12107C104.604 6.14891 104.612 6.17423 104.63 6.19195C104.663 6.2122 104.688 6.21473 104.703 6.20714C104.785 6.18942 104.843 6.17929 104.876 6.17929L104.879 6.17423ZM111.428 9.25502C111.395 9.25502 111.377 9.26514 111.377 9.28286C111.359 9.31071 111.364 9.34108 111.39 9.36893C111.827 9.95876 112.309 10.4625 112.838 10.8802C113.018 11.0321 113.122 11.2422 113.148 11.508C113.155 11.5359 113.16 11.5738 113.16 11.6219C113.16 11.8396 113.099 12.0346 112.975 12.2067C112.777 12.4447 112.566 12.5763 112.342 12.6067C112.309 12.6168 112.259 12.6219 112.195 12.6219C111.997 12.6219 111.824 12.551 111.674 12.4092C111.204 11.9156 110.788 11.3916 110.424 10.8397C110.424 10.8119 110.412 10.8068 110.386 10.8245C110.368 10.8245 110.361 10.8397 110.361 10.8676V12.4928C110.361 12.7788 110.274 13.0193 110.102 13.2193C109.929 13.4193 109.721 13.518 109.482 13.518C109.243 13.518 109.025 13.4193 108.849 13.2193C108.677 13.0193 108.59 12.7763 108.59 12.4928V10.8093C108.59 10.7916 108.583 10.7815 108.565 10.7815H108.514C108.036 11.503 107.478 12.1257 106.842 12.6497C106.703 12.7737 106.54 12.8345 106.36 12.8345C106.319 12.8345 106.256 12.8244 106.174 12.8067C105.936 12.7408 105.73 12.5965 105.555 12.3788C105.448 12.2269 105.394 12.0599 105.394 11.8801L105.407 11.7232C105.44 11.4852 105.555 11.3004 105.753 11.1663C106.439 10.6904 107.041 10.0929 107.559 9.36893C107.577 9.34108 107.577 9.31071 107.559 9.28286C107.559 9.26514 107.541 9.25502 107.511 9.25502H106.571C106.339 9.25502 106.149 9.16388 106.002 8.98415C105.844 8.78416 105.765 8.56646 105.765 8.3285C105.765 8.09054 105.844 7.8855 106.002 7.68804C106.149 7.50831 106.339 7.41718 106.571 7.41718H108.466C108.547 7.41718 108.59 7.36908 108.59 7.27541C108.59 6.94379 108.694 6.6628 108.9 6.43497C109.106 6.19701 109.35 6.07803 109.632 6.07803H109.891C109.909 6.07803 109.924 6.06791 109.942 6.05019C109.949 6.02234 109.947 5.99703 109.929 5.97931C109.738 5.7135 109.644 5.18949 109.644 4.4098V3.51113C109.644 3.25546 109.723 3.03522 109.881 2.85549C110.038 2.67575 110.224 2.58462 110.437 2.58462C110.65 2.58462 110.849 2.67575 111.006 2.85549C111.164 3.03522 111.242 3.25546 111.242 3.51113V4.39461C111.242 4.56675 111.255 4.68067 111.28 4.73636C111.306 4.77433 111.362 4.79458 111.453 4.79458H111.824C111.916 4.79458 111.971 4.75661 111.997 4.68067C112.071 4.50093 112.177 4.35664 112.319 4.25285C112.393 4.19463 112.477 4.16678 112.566 4.16678C112.607 4.16678 112.67 4.17691 112.751 4.19463C112.965 4.30854 113.13 4.46549 113.247 4.66548C113.32 4.78952 113.358 4.93128 113.358 5.0933C113.358 5.13127 113.351 5.20721 113.333 5.32113C113.216 5.73882 113.061 6.02487 112.863 6.17676C112.657 6.33877 112.375 6.41978 112.022 6.41978H111.169C110.938 6.41978 110.706 6.397 110.475 6.3489C110.442 6.33118 110.417 6.33371 110.402 6.36409C110.376 6.37421 110.363 6.40206 110.363 6.45016V7.27795C110.363 7.37414 110.402 7.41971 110.475 7.41971H112.457C112.67 7.41971 112.858 7.51084 113.013 7.69057C113.171 7.87031 113.249 8.08548 113.249 8.33103C113.249 8.57658 113.171 8.80695 113.013 8.98668C112.856 9.16641 112.67 9.25755 112.457 9.25755H111.43L111.428 9.25502ZM107.48 2.31122C107.396 2.31122 107.356 2.35426 107.356 2.44033V2.82511C107.356 3.06307 107.282 3.26811 107.132 3.43772C106.985 3.60986 106.807 3.6934 106.599 3.6934C106.39 3.6934 106.215 3.60733 106.068 3.43772C105.92 3.26558 105.844 3.06307 105.844 2.82511V1.78215C105.844 1.45812 105.948 1.16953 106.154 0.911324C106.367 0.683493 106.616 0.569577 106.896 0.569577H112.195C112.485 0.569577 112.731 0.683493 112.937 0.911324C113.143 1.14928 113.247 1.43787 113.247 1.78215V2.696C113.247 2.95168 113.168 3.16685 113.01 3.33899C112.863 3.51873 112.675 3.60986 112.454 3.60986C112.233 3.60986 112.045 3.51873 111.898 3.33899C111.74 3.16685 111.662 2.95421 111.662 2.696V2.44033C111.662 2.35426 111.621 2.31122 111.537 2.31122H107.478H107.48ZM107.889 2.86814C108.047 2.68841 108.235 2.59728 108.458 2.59728C108.682 2.59728 108.867 2.69347 109.014 2.88333C109.147 3.03522 109.213 3.21242 109.213 3.40988V3.53898C109.129 4.2807 108.936 4.88825 108.631 5.36416C108.341 5.81983 107.859 6.19954 107.183 6.50585C107.102 6.5337 107.01 6.54889 106.911 6.54889C106.794 6.54889 106.685 6.52104 106.576 6.46282C106.362 6.33877 106.197 6.1717 106.08 5.96412C106.014 5.86033 105.981 5.74894 105.981 5.63503C105.981 5.56921 105.994 5.50086 106.019 5.43504C106.07 5.25531 106.177 5.1262 106.342 5.05026C106.731 4.89837 107.018 4.69839 107.208 4.4503C107.399 4.20222 107.521 3.89845 107.579 3.53645C107.612 3.27064 107.716 3.04788 107.889 2.86561V2.86814Z" fill="#F87171"/>
<path d="M116.651 1.79733H120.896C121.358 1.80746 121.625 2.1163 121.693 2.72385C121.765 3.3314 121.544 3.8225 121.03 4.19209C120.494 4.68573 120.068 5.06798 119.75 5.33884C119.432 5.60971 119.158 5.84513 118.927 6.04512L122.095 5.71603C122.656 5.66793 122.961 6.01474 123.012 6.75646C123.053 7.48805 122.781 7.86777 122.194 7.89815L120.88 8.03991C120.558 8.07788 120.23 8.17914 119.897 8.34622C119.562 8.51329 119.272 8.72594 119.023 8.98921C118.775 9.25248 118.62 9.55625 118.554 9.90813C118.503 10.2499 118.543 10.5131 118.67 10.6929C118.797 10.8726 118.975 10.9992 119.201 11.0701C119.427 11.1409 119.666 11.1916 119.913 11.2194C120.301 11.2675 120.705 11.2852 121.127 11.2776C121.729 11.2878 122.011 11.6245 121.968 12.2902C121.902 13.0041 121.638 13.3788 121.175 13.4167C120.903 13.4547 120.461 13.4496 119.852 13.4015C119.58 13.3737 119.222 13.3053 118.782 13.2016C118.34 13.0978 117.954 12.9054 117.619 12.6244C117.283 12.3434 117.017 11.9814 116.813 11.5409C116.61 11.0979 116.552 10.541 116.633 9.86509C116.684 9.54107 116.783 9.24995 116.935 8.98921C117.088 8.72847 117.283 8.49304 117.522 8.28293L115.294 8.48292C114.725 8.54114 114.441 8.17408 114.441 7.38426C114.466 6.73874 114.751 6.37674 115.294 6.3008L116.199 6.20207C116.859 5.68818 117.357 5.27049 117.697 4.94647C118.035 4.62244 118.371 4.30094 118.701 3.97692H116.646C116.135 3.94907 115.861 3.58201 115.828 2.87826C115.843 2.1568 116.117 1.7948 116.646 1.7948L116.651 1.79733Z" fill="#F87171"/>
<path d="M128.474 13.1357C128.227 12.832 128.103 12.4573 128.103 12.0092C128.103 11.5612 128.227 11.189 128.474 10.8903C128.72 10.5916 129.03 10.4423 129.401 10.4423C129.772 10.4423 130.094 10.5916 130.341 10.8903C130.587 11.189 130.712 11.5637 130.712 12.0092C130.712 12.4548 130.587 12.832 130.341 13.1357C130.094 13.4395 129.779 13.5914 129.401 13.5914C129.022 13.5914 128.72 13.4395 128.474 13.1357ZM128.336 3.62504C128.329 3.2833 128.43 2.98711 128.639 2.73397C128.85 2.48335 129.104 2.35678 129.401 2.35678C129.698 2.35678 129.965 2.48082 130.176 2.72637C130.387 2.97446 130.488 3.27317 130.478 3.62504L130.44 4.7237L130.168 8.84491C130.15 9.06262 130.072 9.25501 129.927 9.41449C129.782 9.5765 129.612 9.65751 129.414 9.65751C129.215 9.65751 129.033 9.5765 128.888 9.41449C128.743 9.25248 128.662 9.06262 128.646 8.84491L128.375 4.7237L128.336 3.62504Z" fill="#F87171"/>
<path d="M138.152 1.09867C138.185 0.918932 138.267 0.772107 138.394 0.65566C138.521 0.541744 138.668 0.483521 138.833 0.483521C139.031 0.483521 139.196 0.559464 139.329 0.711352C139.461 0.863239 139.527 1.04804 139.527 1.26827C139.527 1.35434 139.522 1.4151 139.514 1.45307L137.05 14.2597C137.009 14.4496 136.925 14.6015 136.803 14.7154C136.679 14.8293 136.534 14.8875 136.369 14.8875C136.171 14.8875 136.006 14.8091 135.874 14.6521C135.742 14.4952 135.676 14.3078 135.676 14.0901C135.676 14.0142 135.681 13.9559 135.688 13.918L138.152 1.09867Z" fill="#F87171"/>
</g>
<defs>
<clipPath id="clip0_22_908">
<rect width="169" height="69" fill="white"/>
</clipPath>
</defs>
</svg>
